<?xml version="1.0" standalone="no"?>
<!DOCTYPE svg PUBLIC "-//W3C//DTD SVG 20010904//EN"
 "http://www.w3.org/TR/2001/REC-SVG-20010904/DTD/svg10.dtd">
<svg version="1.0" xmlns="http://www.w3.org/2000/svg"
 width="1024.000000pt" height="1024.000000pt" viewBox="0 0 1024.000000 1024.000000"
 preserveAspectRatio="xMidYMid meet">

<g transform="translate(0.000000,1024.000000) scale(0.100000,-0.100000)"
fill="#000000" stroke="none">
<path d="M6160 8448 c-54 -23 -145 -81 -225 -142 -22 -17 -71 -47 -110 -66
-83 -42 -150 -108 -195 -192 -19 -34 -56 -96 -85 -138 -28 -41 -74 -131 -104
-199 -49 -116 -53 -132 -62 -240 -11 -147 -11 -392 1 -588 9 -165 0 -245 -39
-327 -11 -22 -23 -68 -27 -101 -11 -93 -70 -280 -94 -295 -8 -5 -61 -6 -94 -1
-4 0 -5 16 -2 35 5 26 3 35 -10 40 -14 5 -16 16 -11 69 10 105 -17 239 -82
399 -26 65 -32 100 -41 212 -12 161 -53 334 -104 440 -42 87 -148 201 -220
236 -37 18 -62 22 -131 21 -52 -1 -100 -7 -122 -16 -50 -21 -162 -107 -201
-155 -48 -58 -239 -345 -247 -370 -5 -17 -12 -20 -28 -15 -12 3 -103 9 -202
13 -151 7 -185 11 -212 27 -18 10 -63 62 -100 114 -88 123 -141 181 -233 254
-110 88 -156 107 -260 107 -100 0 -149 -19 -196 -72 -42 -48 -108 -170 -138
-254 -36 -102 -70 -188 -115 -290 -22 -50 -52 -135 -66 -190 -15 -54 -46 -166
-70 -249 -83 -284 -125 -477 -125 -572 0 -35 -4 -40 -32 -51 -71 -26 -267
-198 -525 -459 -86 -87 -94 -98 -114 -165 -13 -47 -19 -86 -16 -112 5 -36 2
-43 -29 -71 -28 -23 -40 -45 -54 -100 -35 -126 -25 -774 12 -870 7 -18 14
-118 18 -245 4 -181 8 -221 23 -252 15 -29 16 -41 7 -58 -9 -16 -11 -109 -9
-329 2 -218 -1 -314 -9 -334 -21 -49 -15 -108 15 -152 33 -49 44 -58 113 -94
63 -33 303 -95 425 -110 44 -6 195 -20 335 -31 394 -31 456 -38 584 -60 66
-11 171 -25 235 -30 240 -21 522 -63 701 -107 246 -59 328 -73 505 -88 93 -8
203 -21 243 -30 42 -8 123 -15 191 -15 166 0 206 -7 222 -37 17 -33 79 -63
126 -63 44 0 94 28 119 65 11 17 25 25 45 25 17 0 44 6 62 14 36 15 87 69 87
92 0 8 11 31 24 52 13 20 56 95 95 166 82 147 146 236 255 356 119 130 143
162 190 247 24 43 80 143 124 222 45 79 82 146 82 147 0 7 177 326 251 454 82
142 105 208 94 272 -14 81 -108 139 -187 117 -21 -5 -40 -14 -43 -19 -15 -25
-22 -3 -24 83 -6 292 -52 699 -137 1222 -8 50 -17 119 -20 155 -4 44 -16 85
-37 129 -39 78 -77 103 -152 99 -44 -3 -53 0 -74 25 -35 41 -66 53 -171 67
-52 6 -101 14 -108 16 -8 2 4 24 34 61 51 62 114 184 114 220 0 12 -7 41 -16
63 l-17 41 31 32 c17 18 36 46 42 62 15 39 5 140 -27 280 -23 101 -25 123 -20
275 7 193 16 230 94 380 65 126 106 187 170 252 154 158 344 265 499 282 73 8
94 18 141 69 90 97 61 220 -65 282 -106 52 -199 77 -312 81 -93 4 -111 2 -160
-18z m-1587 -1177 c72 -80 126 -320 134 -601 4 -157 8 -190 24 -218 23 -40 26
-164 7 -306 -9 -74 -15 -94 -33 -108 -45 -35 -52 -78 -60 -339 -6 -210 -5
-250 8 -275 14 -27 13 -38 -9 -134 -19 -81 -23 -121 -19 -172 l6 -66 -73 -6
c-191 -14 -797 -22 -1461 -18 l-459 2 6 253 c3 138 9 296 12 350 3 55 3 119
-1 143 -8 57 -53 110 -106 125 -35 11 -39 15 -39 46 0 61 43 244 125 528 23
83 53 186 65 230 12 44 37 112 56 150 30 63 51 116 118 300 23 61 53 115 65
115 11 0 114 -88 124 -107 6 -10 30 -40 55 -68 25 -27 75 -93 112 -145 99
-139 114 -151 202 -162 40 -5 159 -12 263 -17 146 -7 207 -14 265 -31 62 -18
81 -20 111 -11 58 18 85 46 114 120 24 64 101 196 185 316 48 69 126 145 149
145 10 0 35 -18 54 -39z m461 -1370 c16 -18 16 -21 1 -50 -19 -38 -61 -45 -51
-8 4 12 9 34 12 50 8 32 15 34 38 8z m376 -116 c30 -7 78 -20 105 -28 28 -8
63 -18 78 -21 l29 -7 -34 -37 c-18 -20 -53 -65 -77 -99 l-44 -63 -27 58 c-24
51 -70 104 -100 114 -11 3 -3 98 9 98 3 -1 31 -7 61 -15z m556 -543 l26 -174
-21 -22 c-11 -12 -27 -39 -36 -60 -18 -42 -16 -71 15 -196 11 -41 26 -134 35
-205 9 -72 23 -155 32 -185 8 -30 18 -73 20 -95 2 -22 8 -62 13 -88 6 -26 10
-116 11 -200 0 -91 5 -166 12 -187 12 -35 11 -37 -95 -210 -58 -96 -164 -255
-235 -353 -226 -314 -276 -393 -352 -542 l-75 -145 -24 47 c-23 47 -24 58 -32
393 -5 190 -14 415 -19 500 -6 85 -11 304 -11 486 0 183 -5 378 -11 435 -6 57
-12 127 -13 154 -2 28 -4 58 -5 67 0 9 -13 31 -27 48 -30 35 -26 48 11 32 37
-17 84 -14 130 7 33 15 69 56 201 232 179 239 216 292 299 429 32 52 68 108
79 123 l21 29 12 -74 c7 -40 25 -151 39 -246z m-3709 216 c7 -24 28 -62 47
-85 l36 -41 0 -136 0 -135 -27 9 c-16 5 -109 11 -208 14 -99 3 -198 9 -220 14
l-40 7 194 198 c107 108 197 197 200 197 4 0 12 -19 18 -42z m-494 -673 c23
-9 69 -15 124 -15 48 0 156 -8 238 -16 180 -19 1544 -36 1800 -23 88 4 285 9
437 11 242 2 279 0 295 -13 54 -48 111 -51 187 -11 37 20 63 28 84 24 l31 -4
-21 -28 c-32 -43 -37 -98 -22 -238 8 -79 14 -251 14 -452 0 -179 5 -407 10
-508 11 -182 11 -183 -12 -215 -22 -30 -23 -43 -26 -220 -3 -200 4 -260 41
-336 16 -34 23 -71 27 -146 l5 -101 -60 0 c-33 -1 -81 -4 -107 -9 -31 -5 -75
-2 -135 9 -48 9 -164 23 -258 31 -170 15 -240 27 -475 85 -145 35 -461 83
-692 105 -89 9 -213 25 -276 36 -122 20 -187 27 -587 59 -300 24 -372 33 -490
63 l-90 23 5 124 c3 69 5 276 5 460 0 297 -3 349 -22 460 -14 83 -23 190 -27
315 -3 108 -13 229 -22 280 -16 87 -30 265 -21 265 3 0 21 -7 40 -15z"/>
<path d="M3885 6591 c-42 -26 -58 -45 -103 -131 -60 -112 -75 -174 -70 -294 3
-87 8 -109 34 -161 46 -95 135 -127 216 -77 52 33 72 77 64 143 -22 173 -22
170 28 262 53 97 59 150 26 205 -41 67 -132 92 -195 53z"/>
<path d="M2923 6580 c-30 -13 -52 -34 -73 -67 -47 -74 -62 -134 -67 -278 -4
-112 -2 -135 14 -165 51 -97 190 -108 254 -19 21 30 25 48 29 150 5 113 6 117
37 152 51 58 55 128 12 189 -42 59 -126 75 -206 38z"/>
<path d="M2815 5791 c-33 -14 -73 -60 -86 -98 -22 -69 14 -144 90 -182 20 -11
47 -31 61 -46 45 -48 144 -122 206 -153 117 -59 226 -62 311 -11 l32 20 39
-26 c48 -32 171 -59 235 -51 76 8 145 47 241 134 104 94 115 111 116 173 0
110 -110 179 -216 134 -19 -8 -63 -44 -98 -80 -40 -42 -70 -65 -85 -65 -14 0
-46 22 -83 58 l-60 57 -77 0 c-74 0 -77 -1 -129 -42 -30 -24 -62 -43 -72 -43
-21 0 -56 26 -135 100 -98 92 -148 121 -213 126 -31 2 -66 0 -77 -5z"/>
<path d="M1984 4585 c-8 -13 -13 -28 -10 -34 3 -5 1 -22 -4 -37 -8 -20 -8 -60
0 -139 7 -60 15 -153 20 -205 4 -52 10 -102 14 -112 15 -35 78 -28 90 9 3 10
2 60 -2 111 -4 52 -4 99 1 108 5 9 7 38 5 65 l-5 48 28 -15 c15 -7 48 -14 72
-14 30 0 47 -5 50 -15 4 -8 14 -81 23 -162 9 -81 21 -154 27 -160 16 -22 55
-15 73 12 16 24 16 35 0 163 -27 216 -43 311 -57 328 -7 9 -25 14 -43 12 -25
-2 -35 -11 -49 -40 -11 -22 -26 -38 -35 -38 -9 0 -43 32 -75 70 -65 78 -94 88
-123 45z"/>
<path d="M4491 4358 c-57 -22 -135 -92 -152 -136 -10 -27 2 -57 29 -71 9 -5
50 -16 91 -25 40 -9 87 -24 103 -32 28 -14 50 -51 41 -66 -2 -5 -37 -8 -77 -8
-73 0 -98 -9 -109 -41 -3 -9 1 -26 9 -38 13 -19 25 -21 102 -21 101 0 158 13
172 40 17 31 11 92 -14 146 -20 43 -32 55 -77 78 -30 15 -71 29 -91 33 -21 3
-38 10 -38 14 0 5 26 22 58 37 46 22 58 32 60 54 2 18 -4 31 -20 42 -27 19
-21 20 -87 -6z"/>
<path d="M3008 4335 c-26 -14 -54 -35 -62 -47 -9 -12 -17 -20 -18 -17 -2 2 -8
13 -14 24 -17 31 -59 31 -79 1 -16 -24 -16 -29 4 -92 12 -37 21 -82 21 -101 0
-32 28 -73 51 -73 29 0 48 23 59 72 13 64 50 122 90 143 27 14 30 14 39 -3 20
-37 34 -152 22 -178 -24 -53 35 -92 85 -59 26 17 27 18 21 104 -16 220 -88
294 -219 226z"/>
<path d="M3962 4346 c-128 -46 -134 -221 -12 -304 61 -42 174 -21 253 46 13
12 17 31 17 81 0 85 -29 148 -80 173 -41 21 -128 23 -178 4z m136 -95 c20 -12
28 -91 11 -102 -17 -11 -110 -12 -125 -1 -33 21 -27 88 9 102 28 11 88 12 105
1z"/>
<path d="M2625 4324 c-71 -36 -117 -154 -82 -208 20 -29 75 -56 117 -56 22 0
40 -8 56 -26 18 -19 30 -24 47 -18 48 14 50 21 43 143 -7 119 -14 141 -50 141
-12 0 -29 9 -39 20 -20 23 -50 25 -92 4z m75 -99 c0 -23 -30 -65 -46 -65 -19
0 -18 40 3 62 20 22 43 24 43 3z"/>
<path d="M3452 4323 c-95 -47 -121 -172 -50 -242 30 -30 36 -31 114 -31 46 0
94 4 109 10 35 13 40 -2 40 -120 0 -113 -16 -177 -49 -191 -19 -9 -30 -6 -64
16 -23 15 -48 38 -57 51 -9 14 -25 24 -40 24 -24 0 -55 -23 -55 -42 0 -56 125
-158 194 -158 81 0 135 54 161 160 24 99 17 236 -19 345 -24 71 -34 86 -88
138 -58 54 -64 57 -112 57 -28 0 -66 -8 -84 -17z m117 -109 c27 -35 27 -37
-11 -52 -26 -10 -35 -9 -48 3 -9 8 -24 15 -33 15 -23 0 -21 9 5 37 28 30 62
29 87 -3z"/>
</g>
</svg>
